<?xml version="1.0" encoding="UTF-8" standalone="no"?>
<!-- Created with Inkscape (http://www.inkscape.org/) -->
<svg
   xmlns:dc="http://purl.org/dc/elements/1.1/"
   xmlns:cc="http://creativecommons.org/ns#"
   xmlns:rdf="http://www.w3.org/1999/02/22-rdf-syntax-ns#"
   xmlns:svg="http://www.w3.org/2000/svg"
   xmlns="http://www.w3.org/2000/svg"
   xmlns:sodipodi="http://sodipodi.sourceforge.net/DTD/sodipodi-0.dtd"
   xmlns:inkscape="http://www.inkscape.org/namespaces/inkscape"
   version="1.1"
   id="svg52"
   width="534.26086"
   height="534.26086"
   viewBox="0 0 534.26086 534.26086"
   sodipodi:docname="food-tray.svg"
   inkscape:version="0.92.3 (2405546, 2018-03-11)">
  <metadata
     id="metadata58">
    <rdf:RDF>
      <cc:Work
         rdf:about="">
        <dc:format>image/svg+xml</dc:format>
        <dc:type
           rdf:resource="http://purl.org/dc/dcmitype/StillImage" />
        <dc:title></dc:title>
      </cc:Work>
    </rdf:RDF>
  </metadata>
  <defs
     id="defs56" />
  <sodipodi:namedview
     pagecolor="#ffffff"
     bordercolor="#666666"
     borderopacity="1"
     objecttolerance="10"
     gridtolerance="10"
     guidetolerance="10"
     inkscape:pageopacity="0"
     inkscape:pageshadow="2"
     inkscape:window-width="1600"
     inkscape:window-height="837"
     id="namedview54"
     showgrid="false"
     inkscape:zoom="1.2494061"
     inkscape:cx="174.68637"
     inkscape:cy="220.03585"
     inkscape:window-x="-8"
     inkscape:window-y="-8"
     inkscape:window-maximized="1"
     inkscape:current-layer="svg52" />
  <path
     inkscape:connector-curvature="0"
     id="path152"
     d="M 21.328993,470.00134 C 0.01388907,458.18729 -6.3538559,430.09477 9.8732918,419.46235 17.50369,414.46271 20.354207,407.82318 22.421361,390.23492 c 3.788644,-32.23544 16.878122,-64.4967 40.495022,-99.80689 23.499539,-35.13473 52.381707,-60.86282 68.324167,-60.86282 7.56552,0 12.01016,-2.9749 14.59257,-9.76715 4.3983,-11.56841 35.24946,-25.95491 70.27054,-32.76852 13.14298,-2.55707 24.45873,-5.08197 25.14611,-5.61089 0.68738,-0.52893 -3.53871,-8.01791 -9.3913,-16.64219 -13.25027,-19.52536 -13.48918,-32.91651 -0.81342,-45.59227 8.23802,-8.23801 14.07493,-9.82767 36.08538,-9.82767 22.01045,0 27.84736,1.58966 36.08538,9.82767 12.67576,12.67576 12.43685,26.06691 -0.81342,45.59227 -5.85259,8.62428 -10.07868,15.99476 -9.3913,16.37885 0.68738,0.38408 15.33673,4.13394 32.55412,8.33302 70.80257,17.26775 131.3323,65.29876 162.77163,129.16108 13.78702,28.00547 24.92469,64.80137 25.00491,82.60967 0.0334,7.09003 3.75752,13.42778 10.48433,17.83534 5.73913,3.76045 10.43478,10.64365 10.43478,15.29601 0,13.52294 -10.97998,31.0454 -22.8399,36.44912 -16.67299,7.59673 -476.291816,6.81065 -490.091967,-0.83821 z M 32.272531,232.93013 c -1.083909,-2.99853 0.602658,-11.7856 3.747928,-19.52683 8.985584,-22.11556 7.022576,-39.92691 -6.803068,-61.72769 -18.410593,-29.03049 -15.662543,-70.888936 5.823795,-88.708364 6.156265,-5.105622 7.974635,-5.044591 13.471382,0.452152 5.69002,5.690024 5.668116,7.997154 -0.209489,22.064226 -9.674013,23.153186 -8.122413,36.672046 7.001268,61.000956 16.043641,25.80882 17.573221,47.48141 5.127097,72.64585 -8.378688,16.94062 -24.217675,24.70275 -28.158913,13.7997 z M 480.56693,232.3353 c -8.89039,-10.71226 -17.71141,-42.45753 -15.3524,-55.25054 1.30101,-7.05555 7.97739,-21.6773 14.83634,-32.49278 14.04388,-22.14488 15.45429,-36.25828 5.90692,-59.108356 -5.87762,-14.067072 -5.89953,-16.374202 -0.20953,-22.064226 5.49675,-5.496743 7.31512,-5.557774 13.47139,-0.452152 21.4863,17.819428 24.23436,59.677874 5.82378,88.708364 -13.82563,21.80078 -15.78866,39.61213 -6.80306,61.72769 3.14525,7.74123 4.86699,16.42278 3.82606,19.29235 -2.50039,6.89303 -15.66286,6.67242 -21.49954,-0.36034 z M 122.45074,164.60339 c -1.37757,-3.58987 -0.3926,-11.16254 2.18884,-16.82815 3.93479,-8.63592 2.93905,-13.65643 -6.15978,-31.05761 -11.74974,-22.470963 -11.32846,-33.815458 1.86061,-50.103273 5.23859,-6.469381 10.14184,-8.654066 15.12835,-6.740561 6.13378,2.353753 6.91459,5.919314 4.63101,21.147323 -2.1664,14.446589 -0.94557,21.270501 5.77856,32.299731 10.18131,16.69984 10.76832,28.90337 2.18839,45.49512 -6.93587,13.41249 -21.4331,16.68785 -25.61598,5.78742 z m 263.7434,-5.78742 c -8.57993,-16.59175 -7.99292,-28.79528 2.18839,-45.49512 6.72413,-11.02923 7.94496,-17.853142 5.77856,-32.299731 -2.28358,-15.228009 -1.50277,-18.79357 4.63101,-21.147323 4.98651,-1.913505 9.88976,0.27118 15.12835,6.740561 13.18905,16.287815 13.61037,27.63231 1.86061,50.103273 -9.09883,17.40118 -10.09457,22.42169 -6.15978,31.05761 10.46908,22.97707 -11.82209,33.48243 -23.42714,11.04073 z"
     style="fill:#fdcc52;stroke-width:4.173913" />
  <path
     inkscape:connector-curvature="0"
     id="path148"
     d="M 21.328993,470.00134 C 0.01388907,458.18729 -6.3538559,430.09477 9.8732918,419.46235 17.50369,414.46271 20.354207,407.82318 22.421361,390.23492 28.061067,342.24983 64.655081,275.21238 101.84383,244.739 c 37.27849,-30.54692 49.45136,-13.38064 14.50948,20.46138 -40.047135,38.78657 -70.440267,98.3394 -70.440267,138.02188 V 417.3913 H 267.13043 488.34782 l -0.0497,-11.47826 c -0.0759,-17.62279 -9.89105,-50.56375 -23.3035,-78.21044 -22.67478,-46.73879 -80.70075,-95.33496 -133.16857,-111.52736 -45.24641,-13.96375 -104.3213,-11.23484 -149.1991,6.8921 -26.93506,10.87956 -36.54003,10.21519 -36.54003,-2.52743 0,-10.15058 33.88201,-26.46863 69.26642,-33.35969 13.55565,-2.63994 25.20902,-5.23265 25.8964,-5.76157 0.68738,-0.52893 -3.53871,-8.01791 -9.3913,-16.64219 -13.25027,-19.52536 -13.48918,-32.91651 -0.81342,-45.59227 8.23802,-8.23801 14.07493,-9.82767 36.08538,-9.82767 22.01045,0 27.84736,1.58966 36.08538,9.82767 12.67576,12.67576 12.43685,26.06691 -0.81342,45.59227 -5.85259,8.62428 -10.07868,15.99476 -9.3913,16.37885 0.68738,0.38408 15.33673,4.13394 32.55412,8.33302 70.80257,17.26775 131.3323,65.29876 162.77163,129.16108 13.78702,28.00547 24.92469,64.80137 25.00491,82.60967 0.0334,7.09003 3.75752,13.42778 10.48433,17.83534 5.73913,3.76045 10.43478,10.64365 10.43478,15.29601 0,13.52294 -10.97998,31.0454 -22.8399,36.44912 -16.67299,7.59673 -476.291816,6.81065 -490.091967,-0.83821 z M 32.272531,232.93013 c -1.083909,-2.99853 0.602658,-11.7856 3.747928,-19.52683 8.985584,-22.11556 7.022576,-39.92691 -6.803068,-61.72769 -18.410593,-29.03049 -15.662543,-70.888936 5.823795,-88.708364 6.156265,-5.105622 7.974635,-5.044591 13.471382,0.452152 5.69002,5.690024 5.668116,7.997154 -0.209489,22.064226 -9.674013,23.153186 -8.122413,36.672046 7.001268,61.000956 16.043641,25.80882 17.573221,47.48141 5.127097,72.64585 -8.378688,16.94062 -24.217675,24.70275 -28.158913,13.7997 z M 480.56693,232.3353 c -8.89039,-10.71226 -17.71141,-42.45753 -15.3524,-55.25054 1.30101,-7.05555 7.97739,-21.6773 14.83634,-32.49278 14.04388,-22.14488 15.45429,-36.25828 5.90692,-59.108356 -5.87762,-14.067072 -5.89953,-16.374202 -0.20953,-22.064226 5.49675,-5.496743 7.31512,-5.557774 13.47139,-0.452152 21.4863,17.819428 24.23436,59.677874 5.82378,88.708364 -13.82563,21.80078 -15.78866,39.61213 -6.80306,61.72769 3.14525,7.74123 4.86699,16.42278 3.82606,19.29235 -2.50039,6.89303 -15.66286,6.67242 -21.49954,-0.36034 z M 122.45074,164.60339 c -1.37757,-3.58987 -0.3926,-11.16254 2.18884,-16.82815 3.93479,-8.63592 2.93905,-13.65643 -6.15978,-31.05761 -11.74974,-22.470963 -11.32846,-33.815458 1.86061,-50.103273 5.23859,-6.469381 10.14184,-8.654066 15.12835,-6.740561 6.13378,2.353753 6.91459,5.919314 4.63101,21.147323 -2.1664,14.446589 -0.94557,21.270501 5.77856,32.299731 10.18131,16.69984 10.76832,28.90337 2.18839,45.49512 -6.93587,13.41249 -21.4331,16.68785 -25.61598,5.78742 z m 263.7434,-5.78742 c -8.57993,-16.59175 -7.99292,-28.79528 2.18839,-45.49512 6.72413,-11.02923 7.94496,-17.853142 5.77856,-32.299731 -2.28358,-15.228009 -1.50277,-18.79357 4.63101,-21.147323 4.98651,-1.913505 9.88976,0.27118 15.12835,6.740561 13.18905,16.287815 13.61037,27.63231 1.86061,50.103273 -9.09883,17.40118 -10.09457,22.42169 -6.15978,31.05761 10.46908,22.97707 -11.82209,33.48243 -23.42714,11.04073 z"
     style="fill:#9a9b9c;stroke-width:4.173913" />
  <path
     inkscape:connector-curvature="0"
     id="path140"
     d="M 17.967478,458.08695 C 5.8832038,449.502 -1.9665053,433.27087 3.3801652,427.92417 c 1.2017786,-1.20176 5.668798,-2.18505 9.9267098,-2.18505 9.163468,0 13.234229,-9.37008 19.946572,-45.91304 8.878327,-48.33489 42.017468,-104.8078 77.290443,-131.71181 23.11846,-17.63332 22.59073,-8.36704 -0.80078,14.06053 -11.547963,11.07209 -27.715073,30.33398 -35.926912,42.80421 -18.37516,27.90393 -37.160535,82.71538 -35.437034,103.3972 l 1.273009,15.27596 223.304347,1.00032 c 132.46754,0.59336 225.78878,-0.57955 229.41182,-2.88343 5.15779,-3.27977 5.37049,-8.18631 1.36775,-31.55419 C 478.971,304.01689 408.86661,229.29406 321.3913,206.51609 282.41789,196.36768 224.59393,199.77211 186.14129,214.47905 158.98532,224.86537 147.98579,225.90588 156.8,217.25462 163.26963,210.9046 223.85546,192 237.73649,192 c 18.45722,0 20.17104,-9.74948 4.79271,-27.26444 -23.9124,-27.23472 -13.08603,-46.79844 26.01623,-47.01243 35.83941,-0.19613 46.1969,20.80473 23.18623,47.01243 -15.60124,17.76883 -13.68422,27.24195 5.52864,27.32028 23.4049,0.0954 80.31652,22.64984 109.25031,43.29657 49.06181,35.00976 84.28053,88.85474 94.49681,144.47367 6.71232,36.54296 10.7831,45.91304 19.94655,45.91304 10.44238,0 12.43692,2.66918 10.30973,13.79683 -0.9911,5.18471 -7.88189,13.59272 -15.31288,18.68452 l -13.51087,9.25778 H 266.81338 31.186796 Z m 489.043362,-4.6138 c 4.73685,-3.46368 6.71541,-8.31903 5.10265,-12.52174 -2.4025,-6.26096 -23.94135,-6.86446 -244.98306,-6.86446 -221.041707,0 -242.58054,0.6035 -244.983083,6.86446 -6.765316,17.63011 0.631707,18.17902 244.983083,18.17902 188.75403,0 233.5897,-1.05738 239.88041,-5.65728 z M 283.47627,156.8941 c 5.19924,-5.53434 8.78787,-13.51695 7.97476,-17.73913 -1.22054,-6.33774 -5.46254,-7.67671 -24.3206,-7.67671 -18.85806,0 -23.10006,1.33897 -24.3206,7.67671 -1.76184,9.14853 14.55568,27.80155 24.3206,27.80155 3.79098,0 11.1466,-4.52809 16.34584,-10.06242 z M 41.917055,227.47826 c -0.04817,-2.29566 2.638811,-13.1593 5.971046,-24.14143 6.746112,-22.23334 4.821078,-30.9957 -12.366444,-56.28941 -6.996267,-10.29593 -10.478179,-21.13257 -10.478179,-32.61088 0,-21.661941 7.428594,-43.48002 14.804028,-43.48002 4.658331,0 4.587287,2.518481 -0.408313,14.474634 -8.99739,21.533786 -7.481251,39.912946 4.781145,57.958686 14.880688,21.8989 19.109196,38.78026 14.241704,56.85676 -4.001347,14.85985 -16.3772,35.22948 -16.544987,27.23166 z M 481.7206,216.38788 c -11.4101,-21.9815 -9.41117,-45.30724 5.93155,-69.21685 14.6236,-22.78888 16.54193,-39.30852 7.16953,-61.739876 -4.99563,-11.956153 -5.06667,-14.474634 -0.40833,-14.474634 7.37543,0 14.80403,21.818079 14.80403,43.48002 0,11.47831 -3.48192,22.31495 -10.47819,32.61088 -17.35325,25.53764 -19.09427,33.894 -12.02275,57.70634 7.56626,25.47834 5.13241,31.14616 -4.99584,11.63412 z M 129.3913,160.89204 c 0,-1.0398 2.22648,-6.77714 4.94772,-12.74962 4.28391,-9.40216 3.39017,-13.76844 -6.66153,-32.54422 -9.82386,-18.350173 -10.92162,-23.450415 -7.13799,-33.163419 6.31291,-16.205952 12.96392,-14.331652 10.173,2.866819 -1.68194,10.364573 0.12818,18.31905 6.52328,28.66658 9.73308,15.74844 11.1391,28.39254 4.53041,40.741 -3.78955,7.08084 -12.37489,11.37033 -12.37489,6.18286 z m 263.10337,-6.18286 c -6.60869,-12.34846 -5.20267,-24.99256 4.53041,-40.741 6.39512,-10.34753 8.20522,-18.302007 6.52328,-28.66658 -2.79092,-17.198471 3.86009,-19.072771 10.173,-2.866819 3.78363,9.713004 2.68587,14.813246 -7.13799,33.163419 -10.0517,18.77578 -10.94544,23.14206 -6.66153,32.54422 5.99127,13.14941 6.08502,14.64019 0.92066,14.64019 -2.21488,0 -5.9714,-3.63304 -8.34783,-8.07343 z"
     style="fill:#201d1a;stroke-width:4.173913" />
</svg>